# xmcd
#
# Track frame offsets:
#	150
#	54875
#	85805
#	109590
#	130693
#	142461
#
# Disc length: 2106 seconds
#
# Revision: 0
# Processed by: cddbd v1.5.2PL0 Copyright (c) Steve Scherf et al.
# Submitted via: audiograbber 1.83.01
#
DISCID=4c083806
DTITLE=Various Artist - Jazz Party 2  " Kings of Drums"
DYEAR=1972
DGENRE=Jazz
TTITLE0=Gene Krupa feat  Benny Goodman Orchestra - Sing Sing Sing (With A Swing
TTITLE0=)
TTITLE1=Louis Bellson feat Duke Ellington Orchestra - Skin Deep
TTITLE2=Art Blakey Percussion Ensemble - The Sacrifice
TTITLE3=Art Blakey feat Original Jazz Messengers - Hank's Symphony
TTITLE4=Kenny Clarke feat Francy Boland Octet - A Ball For Othello
TTITLE5=Kenny Clarke feat Francy Bolan - Johnny One Note
EXTD=
EXTT0=
EXTT1=
EXTT2=
EXTT3=
EXTT4=
EXTT5=
PLAYORDER=
